<svg width="200" height="73" viewBox="0 0 200 73" fill="none" xmlns="http://www.w3.org/2000/svg">
<path 
id="signature2"
d="M1 15C1 27.3867 4.42825 38.9362 9 50.5C11.3139 56.3529 14.398 62.2636 17.8889 67.5C23.5695 76.0209 27.286 66.2265 29.1111 60.2222C34.4718 42.5864 32 -13.4326 32 5" stroke="#F5880C" stroke-linecap="round" stroke-linejoin="round"/>
<path d="M36 46C42.4319 46 43.9672 45.1481 42.9444 38.5C42.0603 32.7532 35.8459 34.0229 33.7778 38C32.1432 41.1434 31.8004 43.4837 32.0556 47.0556C32.4012 51.8939 38.568 64.2298 44 64.8333C51.1679 65.6298 46.5017 48.9779 47.2222 45.5556C47.7083 43.2469 48.8085 40.4403 50.9444 43.7778C54.5796 49.4577 52.057 57.117 55.1111 63.0556C58.2653 69.1887 63.8052 62.7304 64 58.4445C64.1439 55.2781 61.4103 47.7179 63.2222 45C64.3672 43.2826 71.3975 44 69.3333 44C67.3444 44 64.8511 43.6011 63.0556 44.6111C59.5583 46.5783 60.8879 54.1893 61.2222 57.2222C61.499 59.7332 68.9188 75.6135 73 69.6667C78.4155 61.7756 72.266 53.9268 68.0556 47.6111C66.5734 45.3878 72.8938 53.3266 73 50.7778C73.0709 49.0767 72.7503 47.2346 73.0556 45.5556C73.8288 41.3026 79.5928 46.2473 80.4444 47.6667C83.5918 52.9122 85.1508 60.203 85.7778 66.2222C86.0682 69.0099 86.097 75.9946 86 69.1111C85.9737 67.2409 83.1829 43.5211 87.5556 45.1111C89.3234 45.754 98.0371 61.037 98.7778 59.5556C101.022 55.0664 99 39.4809 99 44.5C99 52.8076 105.196 65.9194 113 57" stroke="#F5880C" stroke-linecap="round" stroke-linejoin="round"/>
<path d="M113 58C113 52.9995 114.59 49.1681 114.944 44.3889C115.517 36.6528 112.501 29.4556 107.556 23.6111C103.048 18.2837 103.942 28.8873 104.222 31.2222C105.113 38.6441 109.068 45.6191 112.333 52.2222C113.313 54.2039 114.295 57.6853 115.778 59.3333C118.293 62.1281 111.94 49.0885 115.556 48.0556C120.189 46.7317 118.93 52.6198 117.889 55C116.596 57.9552 112.417 61 113.556 61C117.403 61 122 62.7304 122 58C122 53.3615 121.91 49.0932 125.778 45.7778C127.075 44.6658 132.489 45 132 45C129.604 45 126.945 44.7989 125.5 47.1111C124.512 48.6921 124.128 57.3927 126.611 57.9444C129.699 58.6307 131.472 58.0006 132.222 55C132.474 53.9922 133.488 45.3128 134 48C134.724 51.8027 147.826 71.1511 149.778 65.2222C151.555 59.824 151 53.6427 151 48" stroke="#F5880C" stroke-linecap="round" stroke-linejoin="round"/>
<path d="M176 41C179.685 36.1357 183.425 31.9729 189.889 31.1111C194.854 30.4491 198.622 30.302 198.944 36.1111C199.495 46.0233 192.863 51.1913 187.444 58.7778C185.525 61.465 182.089 69.4557 179 71" stroke="#F5880C" stroke-linecap="round" stroke-linejoin="round"/>
<path d="M176 41C173.714 39.2683 165.912 32.1995 162.556 35.5556C157.333 40.7785 166.816 54.22 170.056 58C173.882 62.4644 178.479 64.9577 181 70" stroke="#F5880C" stroke-linecap="round" stroke-linejoin="round"/>
<path d="M97 38C96.8123 30.3032 94.6198 33.5087 97.5556 36.4445C98.9617 37.8506 98.538 35.769 97 35" stroke="#F5880C" stroke-linecap="round" stroke-linejoin="round"/>
</svg>
